<?xml version="1.0" encoding="utf-8"?>
<!-- Generator: Adobe Illustrator 17.0.0, SVG Export Plug-In . SVG Version: 6.00 Build 0)  -->
<!DOCTYPE svg PUBLIC "-//W3C//DTD SVG 1.1//EN" "http://www.w3.org/Graphics/SVG/1.1/DTD/svg11.dtd">
<svg version="1.1" id="Capa_1" xmlns="http://www.w3.org/2000/svg" xmlns:xlink="http://www.w3.org/1999/xlink" x="0px" y="0px"
	 width="440px" height="130px" viewBox="0 0 440 130" enable-background="new 0 0 440 130" xml:space="preserve">
<g>
	<path fill="#FFFFFF" d="M68.915,39.28c0.002-0.006,0.005-0.01,0.007-0.017C68.92,39.268,68.917,39.273,68.915,39.28"/>
	<path fill="#FFFFFF" d="M97.368,32.825c-0.023-0.009-0.051-0.017-0.073-0.027C97.319,32.809,97.343,32.815,97.368,32.825"/>
	<path fill="#FFFFFF" d="M116.261,27.481L116.261,27.481c0.023,0.01,0.051,0.018,0.074,0.027c0.225,0.095,0.496,0.167,0.854,0.203
		c0.013,0.001,0.023,0.003,0.036,0.005c-0.009-0.002-0.015-0.004-0.025-0.006C116.8,27.624,116.496,27.558,116.261,27.481"/>
	<rect x="18.401" y="96.561" fill="#FFFFFF" width="89.637" height="2.558"/>
	<rect x="331.825" y="96.561" fill="#FFFFFF" width="89.77" height="2.558"/>
	<polygon fill="#FFFFFF" points="126.02,92.923 122.776,92.923 122.776,104.569 120.735,104.569 120.735,92.923 117.491,92.923 
		117.491,91.029 126.02,91.029 	"/>
	<path fill="#FFFFFF" d="M135.344,104.568l-1.718-3.809h-1.784v3.809h-2.02v-13.54h4.233c1.089,0,1.934,0.323,2.536,0.969
		c0.601,0.646,0.903,1.491,0.903,2.535v2.743c0,0.624-0.115,1.223-0.344,1.796c-0.23,0.573-0.61,0.983-1.139,1.23l-0.386,0.196
		l1.87,4.07H135.344z M133.54,93.097h-1.697v5.638h1.396c0.358,0,0.663-0.022,0.913-0.065c0.25-0.044,0.477-0.144,0.677-0.304
		c0.286-0.218,0.464-0.486,0.537-0.806c0.072-0.319,0.107-0.638,0.107-0.958v-1.415C135.473,93.794,134.829,93.097,133.54,93.097"/>
	<path fill="#FFFFFF" d="M147.74,101.39h-3.759l-0.838,3.178h-1.997l3.566-13.539h2.299l3.588,13.539h-1.998L147.74,101.39z
		 M144.474,99.518h2.815l-1.46-5.246L144.474,99.518z"/>
	<polygon fill="#FFFFFF" points="161.103,92.923 157.859,92.923 157.859,104.569 155.818,104.569 155.818,92.923 152.574,92.923 
		152.574,91.029 161.103,91.029 	"/>
	<polygon fill="#FFFFFF" points="172.425,92.923 169.181,92.923 169.181,104.569 167.14,104.569 167.14,92.923 163.896,92.923 
		163.896,91.029 172.425,91.029 	"/>
	<path fill="#FFFFFF" d="M184.993,100.651c0,0.769-0.1,1.418-0.3,1.948s-0.491,0.958-0.869,1.285
		c-0.38,0.326-0.85,0.559-1.408,0.696c-0.558,0.138-1.196,0.207-1.911,0.207c-0.73,0-1.379-0.076-1.944-0.229
		c-0.566-0.153-1.04-0.392-1.418-0.718c-0.38-0.327-0.67-0.752-0.87-1.274c-0.201-0.522-0.301-1.161-0.301-1.915v-5.725
		c0-0.784,0.101-1.438,0.301-1.959c0.2-0.523,0.49-0.943,0.87-1.263c0.378-0.319,0.852-0.544,1.418-0.674
		c0.565-0.131,1.214-0.196,1.944-0.196c1.461,0,2.574,0.309,3.34,0.926c0.767,0.617,1.149,1.672,1.149,3.167V100.651z
		 M180.611,92.923h-0.258c-0.846,0-1.443,0.247-1.794,0.74c-0.351,0.494-0.527,1.154-0.527,1.982v4.31
		c0,0.885,0.186,1.56,0.559,2.024c0.373,0.464,0.959,0.697,1.762,0.697h0.258c0.443,0,0.816-0.065,1.118-0.196
		c0.3-0.131,0.544-0.316,0.73-0.555c0.186-0.24,0.315-0.527,0.386-0.86c0.072-0.333,0.108-0.704,0.108-1.11v-4.31
		c0-0.915-0.2-1.596-0.601-2.047C181.95,93.147,181.37,92.923,180.611,92.923"/>
	<path fill="#FFFFFF" d="M195.069,104.568l-1.718-3.809h-1.783v3.809h-2.02v-13.54h4.233c1.089,0,1.934,0.323,2.535,0.969
		c0.602,0.646,0.903,1.491,0.903,2.535v2.743c0,0.624-0.115,1.223-0.344,1.796c-0.23,0.573-0.61,0.983-1.139,1.23l-0.386,0.196
		l1.87,4.07H195.069z M193.265,93.097h-1.697v5.638h1.396c0.358,0,0.663-0.022,0.913-0.065c0.25-0.044,0.477-0.144,0.677-0.304
		c0.286-0.218,0.464-0.486,0.537-0.806c0.072-0.319,0.108-0.638,0.108-0.958v-1.415C195.199,93.794,194.554,93.097,193.265,93.097"
		/>
	<rect x="201.795" y="91.029" fill="#FFFFFF" width="2.019" height="13.54"/>
	<path fill="#FFFFFF" d="M214.233,101.39h-3.759l-0.838,3.178h-1.997l3.566-13.539h2.299l3.588,13.539h-1.998L214.233,101.39z
		 M210.968,99.518h2.815l-1.46-5.246L210.968,99.518z"/>
	<path fill="#FFFFFF" d="M247.608,97.276c0,1.089-0.309,1.941-0.923,2.558c-0.616,0.617-1.454,0.926-2.514,0.926h-2.213v3.809
		h-2.019V91.029h4.233c1.188,0,2.059,0.323,2.61,0.969c0.552,0.645,0.827,1.491,0.827,2.535V97.276z M244.859,93.445
		c-0.215-0.131-0.473-0.217-0.774-0.262c-0.3-0.043-0.666-0.064-1.096-0.064h-1.031v5.616h1.031c0.272,0,0.566-0.022,0.882-0.065
		c0.315-0.044,0.601-0.146,0.859-0.305c0.572-0.334,0.859-0.914,0.859-1.741v-1.437c0-0.276-0.042-0.585-0.129-0.925
		C245.374,93.921,245.174,93.649,244.859,93.445"/>
	<rect x="251.411" y="91.029" fill="#FFFFFF" width="2.019" height="13.54"/>
	<polygon fill="#FFFFFF" points="266.064,104.568 258.179,104.568 258.179,102.457 263.701,92.923 258.135,92.923 258.135,91.029 
		266.021,91.029 266.021,93.141 260.521,102.675 266.064,102.675 	"/>
	<polygon fill="#FFFFFF" points="278.739,104.568 270.854,104.568 270.854,102.457 276.376,92.923 270.811,92.923 270.811,91.029 
		278.696,91.029 278.696,93.141 273.196,102.675 278.739,102.675 	"/>
	<polygon fill="#FFFFFF" points="285.571,96.71 289.373,96.71 289.373,98.648 285.571,98.648 285.571,102.675 290.404,102.675 
		290.404,104.568 283.53,104.568 283.53,91.029 290.404,91.029 290.404,92.923 285.571,92.923 	"/>
	<path fill="#FFFFFF" d="M300.352,104.568l-1.718-3.809h-1.783v3.809h-2.02v-13.54h4.233c1.089,0,1.934,0.323,2.535,0.969
		c0.601,0.646,0.903,1.491,0.903,2.535v2.743c0,0.624-0.115,1.223-0.344,1.796c-0.229,0.573-0.61,0.983-1.139,1.23l-0.386,0.196
		l1.87,4.07H300.352z M298.548,93.097h-1.697v5.638h1.396c0.358,0,0.663-0.022,0.913-0.065c0.25-0.044,0.477-0.144,0.677-0.304
		c0.286-0.218,0.464-0.486,0.537-0.806c0.072-0.319,0.108-0.638,0.108-0.958v-1.415C300.482,93.794,299.837,93.097,298.548,93.097"
		/>
	<rect x="307.076" y="91.029" fill="#FFFFFF" width="2.019" height="13.54"/>
	<path fill="#FFFFFF" d="M319.515,101.39h-3.759l-0.838,3.178h-1.997l3.566-13.539h2.299l3.588,13.539h-1.998L319.515,101.39z
		 M316.249,99.518h2.815l-1.462-5.246L316.249,99.518z"/>
	<path fill="#FFFFFF" d="M230.486,97.184c0,1.103-0.883,1.997-1.972,1.997c-1.089,0-1.97-0.894-1.97-1.997s0.882-1.997,1.97-1.997
		C229.603,95.187,230.486,96.081,230.486,97.184"/>
	<polygon fill="#FFFFFF" points="307.147,89.244 309.156,89.244 310.487,86.62 308.522,86.62 	"/>
	<path fill="#FFFFFF" d="M207.219,46.792c-2.101,0.731-2.101,0.731-2.961-1.098c-2.481-5.279-8.579-7.153-13.645-4.19
		c-2.27,1.327-3.321,3.528-3.844,5.956c-1.19,5.528-1.318,11.129,0.012,16.623c1.773,7.318,9.99,9.683,15.555,4.566
		c1.073-0.987,2.023-2.212,2.707-3.504c0.641-1.212,1.309-1.585,2.708-0.933c-0.394,2.153-0.77,4.393-1.246,6.609
		c-0.073,0.34-0.566,0.661-0.936,0.85c-5.857,3.009-11.984,3.523-18.186,1.494c-4.643-1.52-7.04-5.255-8.054-9.911
		c-1.033-4.74-0.947-9.521,0.001-14.265c1.288-6.451,5.441-10.341,11.927-11.333c4.881-0.747,9.732-0.226,14.572,0.387
		c0.352,0.045,0.847,0.752,0.887,1.188C206.947,41.714,207.06,44.208,207.219,46.792"/>
	<path fill="#FFFFFF" d="M244.204,46.79c-2.1,0.735-2.1,0.735-2.96-1.095c-2.481-5.28-8.576-7.153-13.643-4.193
		c-2.271,1.327-3.322,3.528-3.845,5.956c-1.191,5.528-1.319,11.128,0.011,16.622c1.772,7.319,9.988,9.685,15.552,4.57
		c1.074-0.987,2.023-2.212,2.708-3.504c0.641-1.208,1.305-1.593,2.709-0.934c-0.394,2.15-0.77,4.389-1.245,6.606
		c-0.073,0.34-0.566,0.661-0.935,0.851c-5.857,3.009-11.985,3.523-18.187,1.495c-4.642-1.519-7.041-5.254-8.055-9.91
		c-1.033-4.74-0.946-9.521,0-14.266c1.288-6.451,5.44-10.341,11.926-11.334c4.882-0.748,9.732-0.227,14.573,0.386
		c0.351,0.045,0.848,0.751,0.888,1.187C243.932,41.711,244.046,44.205,244.204,46.79"/>
	<path fill="#FFFFFF" d="M325.748,38.17h14.096c0.287,2.088,0.292,2.138-1.521,2.337c-1.53,0.168-1.943,1.096-1.94,2.468
		c0.011,4.795-0.003,9.589-0.003,14.385c0.001,3.795,0.024,7.592,0.004,11.387c-0.008,1.385,0.586,2.275,1.958,2.266
		c1.804-0.011,1.841,0.984,1.518,2.387h-13.985c-0.457-2.012-0.463-2.055,1.488-2.348c1.239-0.186,1.827-0.871,1.879-2.077
		c0.044-0.997,0.04-1.997,0.042-2.996c0.002-7.442-0.003-14.885,0.002-22.327c0.002-2.209-0.302-3.166-2.622-3.223
		C325.582,40.404,325.571,40.227,325.748,38.17"/>
	<path fill="#FFFFFF" d="M284.025,47.548c-1.394-5.148-4.711-8.397-9.887-9.619c-2.018-0.476-4.047-0.703-6.075-0.702
		c-0.001,0-0.002,0-0.003,0c-2.027-0.001-4.057,0.226-6.075,0.702c-5.176,1.223-8.492,4.472-9.886,9.619
		c-1.449,5.352-1.454,10.777,0.014,16.12c1.467,5.339,4.914,8.729,10.307,10.006c1.876,0.444,3.759,0.658,5.641,0.655h0.001
		c0,0,0.001,0,0.002,0c1.882,0.002,3.766-0.211,5.642-0.655c5.392-1.277,8.839-4.667,10.306-10.006
		C285.48,58.325,285.474,52.901,284.025,47.548 M276.897,64.259c-1.147,4.558-4.249,6.923-8.615,6.962
		c-0.076,0.001-0.146-0.003-0.222-0.003c-0.074,0-0.143,0.004-0.219,0.003c-4.365-0.039-7.468-2.405-8.615-6.962
		c-1.47-5.842-1.425-11.762-0.132-17.637c0.804-3.656,3.086-5.836,6.845-6.165c0.702-0.062,1.414-0.107,2.124-0.113
		c0.709,0.006,1.42,0.051,2.121,0.112c3.759,0.329,6.042,2.509,6.846,6.165C278.322,52.497,278.367,58.417,276.897,64.259"/>
	<path fill="#FFFFFF" d="M395.757,58.734c1.859-5.042,3.681-9.982,5.648-15.318c1.751,5.312,3.377,10.238,5.052,15.318H395.757z
		 M407.864,71.223c-0.311,0.049-0.599,0.078-0.712,0.088l-0.053,0.004v0.135v1.974c4.742,0,9.365-0.011,14.559-0.011
		c-0.413-0.944-0.641-2.145-1.017-2.195c-2.17-0.282-2.863-1.78-3.494-3.565c-3.332-9.42-6.735-18.766-10.063-28.187
		c-0.002-0.006-0.004-0.012-0.006-0.019c-0.036-0.102-0.076-0.188-0.114-0.277c-0.289-0.549-0.859-0.928-1.522-0.928h-3.88
		c-0.711,0-1.32,0.43-1.585,1.044c-0.002,0.006-0.005,0.011-0.007,0.018c-0.005,0.011-0.01,0.021-0.015,0.033
		c-1.804,4.688-3.697,9.291-5.575,13.951c-1.951,4.841-3.902,9.684-5.892,14.51c-0.559,1.355-1.324,2.678-2.854,3.023
		c-0.669,0.152-1.069,0.401-1.29,0.726v1.839h10.702v-1.731c-0.106-0.263-0.347-0.478-0.893-0.598
		c-1.901-0.418-2.309-1.145-1.718-3.007c0.587-1.848,1.274-3.669,2.025-5.454c0.153-0.362,0.78-0.729,1.195-0.735
		c3.599-0.058,7.199-0.069,10.797,0.009c0.468,0.009,1.153,0.496,1.344,0.938c0.707,1.64,1.276,3.345,1.85,5.041
		C410.481,70.31,410.267,70.755,407.864,71.223"/>
	<path fill="#FFFFFF" d="M168.798,71.054c-1.364-0.195-1.964-0.922-1.957-2.307V43.231c0-0.086,0-0.178,0-0.257
		c-0.003-1.372,0.41-2.299,1.94-2.467c1.813-0.199,1.807-0.249,1.52-2.338h-14.182c0.179,0.929-0.608,2.23,1.002,2.267
		c2.308,0.053,2.624,0.991,2.622,3.217c-0.005,7.442-0.001,24.325-0.044,25.322c-0.052,1.206-0.641,1.89-1.879,2.076
		c-1.952,0.293-1.945,0.336-1.488,2.347h13.977C170.576,71.347,170.581,71.309,168.798,71.054"/>
	<path fill="#FFFFFF" d="M317.899,65.124c-0.127,0.376-0.261,0.75-0.408,1.119c-0.17,0.425-0.361,0.843-0.576,1.238
		c-0.084,0.155-0.174,0.298-0.267,0.436c-0.754,1.347-2.179,2.275-3.826,2.275h-0.929c-0.012,0.001-0.025,0.007-0.037,0.007h-6.609
		h-2.599V42.983h0.007c0.019-1.269,0.346-2.225,1.852-2.418c1.956-0.251,1.951-0.296,1.564-2.3h-14.07
		c-0.143,2.077-0.143,2.077,1.136,2.263c2.09,0.303,2.389,0.612,2.404,2.782c0.003,0.403,0.005,0.946,0.006,1.59v18.852
		c-0.001,2.022-0.002,3.703-0.003,4.726c0,1.378-0.34,2.591-1.964,2.585c-1.793-0.006-1.864,0.963-1.53,2.336h27.701
		c0.398-3.372,0.78-6.624,1.162-9.865C318.582,63.081,318.584,63.081,317.899,65.124"/>
	<path fill="#FFFFFF" d="M370.529,38.034v1.835c2.928,0.936,2.931,0.936,2.933,4.089c0.003,5.495,0.002,10.99-0.002,16.485
		c0,0.475-0.038,0.95-0.073,1.743c-0.455-0.574-0.732-0.9-0.983-1.243c-5.147-7.067-10.335-14.106-15.398-21.235
		c-0.542-0.764-1.095-1.258-1.753-1.538h-9.223v1.734c2.823,0.616,3.023,0.867,3.023,3.833c0.003,7.792,0.002,15.586,0.001,23.378
		c-0.001,3.273-0.043,3.329-2.969,4.279v1.272v0.536V73.4h8.801v-0.197v-0.536v-1.323c-2.282-0.739-2.782-0.908-2.893-2.453v-0.854
		l0.048-23.793c0.538,0.697,0.816,1.041,1.078,1.397c6.42,8.722,12.838,17.445,19.258,26.167c0.842,1.145,1.354,1.602,2.249,1.592
		V73.4h1.747v-0.347c0-9.723-0.001-19.463,0.001-29.203c0-3.087,0.105-3.223,2.974-3.969v-1.847H370.529z"/>
	<path fill="#FFFFFF" d="M18.988,27.508c-0.023-0.009-0.051-0.017-0.073-0.027C18.939,27.493,18.963,27.499,18.988,27.508"/>
	<path fill="#FFFFFF" d="M46.982,62.528c-0.506,1.294-1.058,2.575-1.673,3.819c-0.34,0.686-0.754,1.293-1.233,1.814
		c-0.875,1.089-2.199,2.032-3.697,2.032c0,0-10.591,0.003-10.741,0v-40.08h-0.015c0.085-1.588,0.63-2.018,2.43-2.419
		c1.877-0.417,1.877-0.417,1.455-2.478H18.341v1.378c0,0.396,0.237,0.732,0.574,0.888c0.022,0.01,0.05,0.018,0.073,0.027
		c0.225,0.094,0.497,0.166,0.854,0.201c1.967,0.193,2.323,0.777,2.438,2.799h0.003v0.05v37.45c-0.132,2.157-0.777,2.346-3.942,3.241
		v2.15H48.29c0.484-4.061,0.965-8.094,1.442-12.09C47.676,60.668,47.705,60.679,46.982,62.528"/>
	<path fill="#FFFFFF" d="M76.03,39.442c-0.031-0.104-0.072-0.201-0.122-0.296c0.04,0.089,0.079,0.176,0.115,0.277
		C76.026,39.43,76.028,39.436,76.03,39.442"/>
	<path fill="#FFFFFF" d="M76.808,71.199c-0.31,0.05-0.599,0.079-0.712,0.088l-0.053,0.005v0.134v1.975
		c4.742,0,9.365-0.011,14.559-0.011c-0.413-0.944-0.641-2.146-1.017-2.195c-2.17-0.284-2.863-1.781-3.494-3.566
		C82.76,58.21,79.357,48.863,76.03,39.442c-0.003-0.006-0.005-0.012-0.007-0.019c-0.036-0.102-0.076-0.188-0.114-0.277
		c-0.289-0.549-0.858-0.928-1.522-0.928h-3.88c-0.711,0-1.32,0.43-1.585,1.044c-0.002,0.006-0.005,0.01-0.007,0.017
		c-0.005,0.012-0.01,0.021-0.016,0.033c-1.804,4.688-3.697,9.292-5.574,13.951c-1.952,4.842-3.903,9.684-5.893,14.51
		c-0.559,1.357-1.324,2.678-2.854,3.024c-0.669,0.151-1.068,0.4-1.29,0.726v1.838h10.702v-1.732
		c-0.105-0.262-0.347-0.478-0.893-0.597c-1.901-0.419-2.309-1.146-1.718-3.007c0.587-1.849,1.276-3.669,2.026-5.455
		c0.153-0.361,0.781-0.728,1.194-0.735c3.599-0.057,7.2-0.067,10.798,0.009c0.467,0.01,1.153,0.498,1.343,0.938
		c0.707,1.64,1.276,3.345,1.85,5.041C79.425,70.286,79.211,70.731,76.808,71.199 M64.701,58.734
		c1.859-5.042,3.681-9.983,5.648-15.318c1.751,5.311,3.377,10.237,5.052,15.318H64.701z"/>
	<path fill="#FFFFFF" d="M149.886,36.387c-0.401-5.789-3.136-9.16-8.287-10.44c-1.567-0.39-3.202-0.666-4.811-0.688
		c-2.253-0.03-4.506-0.036-6.76-0.046h-14.341v0.727v0.651c0,0.396,0.237,0.732,0.573,0.888c0.236,0.077,0.539,0.143,0.94,0.228
		c0.008,0.002,0.016,0.004,0.024,0.006c1.932,0.197,2.287,0.785,2.401,2.793l0.001-0.002l0.004,0.559v37.262
		c-0.125,1.97-0.73,2.12-3.697,2.824c-0.086,0.02-0.157,0.103-0.292,0.196v2.052h15.645v-2.197c-0.83-0.174-1.594-0.334-2.358-0.498
		c-1.205-0.258-1.95-0.966-1.955-2.254c-0.018-5.036-0.007-10.071-0.007-14.741c2.923,0,5.77,0.116,8.604-0.022
		c7.228-0.353,12.467-4.35,13.907-10.768C149.951,40.816,150.036,38.551,149.886,36.387 M141.773,43.621
		c-0.758,4.09-3.54,6.347-7.794,6.71c-2.283,0.195-4.595,0.035-7.049,0.035c0-7.017,0.009-13.548-0.008-20.078
		c-0.003-1.062,0.556-1.614,1.477-1.715c3.1-0.337,6.205-0.398,9.2,0.656c2.814,0.99,4.331,3.228,4.526,6.084
		C142.312,38.067,142.274,40.919,141.773,43.621"/>
	<rect x="53.289" y="73.066" fill="#FFFFFF" width="10.702" height="0.335"/>
</g>
</svg>
